<?xml version="1.0" standalone="no"?><!DOCTYPE svg PUBLIC "-//W3C//DTD SVG 1.1//EN" "http://www.w3.org/Graphics/SVG/1.1/DTD/svg11.dtd"><svg t="1524885236176" class="icon" style="" viewBox="0 0 1024 1024" version="1.1" xmlns="http://www.w3.org/2000/svg" p-id="7464" xmlns:xlink="http://www.w3.org/1999/xlink" width="128" height="128"><defs><style type="text/css"></style></defs><path d="M880.718 466.406c0 240.626-195.062 435.718-435.718 435.718-240.626 0-435.688-195.094-435.688-435.718 0-240.656 195.062-435.718 435.688-435.718 240.656 0 435.718 195.062 435.718 435.718z" fill="#5D9CEC" p-id="7465"></path><path d="M788.812 406l-92.312-52.656-134.876 69.812s-149.062 35.5-153.812 35.5l18.938 151.468 56.782 139.594 66.282 105.312 151.812 139.626 25.25-27.218 127-132.5 132.5-208.25 14.218-168.032L788.812 406z" fill="#FFCE54" p-id="7466"></path><path d="M765.344 166.656L598.688 76l-64 22.656-120 68-37.344 68L416 248l162.688 32L608 306.656 570.688 336l-72-10.656L388 316l-44 16-46.656 74.656s5.344 114.688 6.656 118.688 54.688 36 54.688 36L407.812 572v-105.594l26.876-11.75 58.656-21.312L568 414.656 648 384l56.188-30.656L738.688 376 792 401.344l33.344-48L838.688 296l-73.344-129.344zM113.344 544l-82.688-112v110.656l25.344 108 56 76 41.344-17.312V628z" fill="#A0D468" p-id="7467"></path><path d="M1023.876 443.218c0-6.844-5.594-12.406-12.376-12.468-25.812-0.968-69.438-4.594-118.938-16.938C865.188 192.594 676.594 21.344 448 21.344c-247.438 0-448 200.562-448 447.968 0 247.438 200.562 448.032 448 448.032 45.532 0 89.5-6.844 130.906-19.5 38.156 40.906 78.594 75.406 118.062 102.688a12.364 12.364 0 0 0 7 2.126c2.468 0 4.906-0.688 6.968-2.126l2-1.312C858.062 898.126 1015.188 700.156 1024 445.376l-0.124-2.158z m-183.438-75.656a404.576 404.576 0 0 1 7.062 32.876c-7.5-2.594-15-5.438-22.532-8.468 1.718-3.718 2.968-7.782 3.75-12.218 1.844-3.126 6.47-7.97 11.72-12.19zM603.938 95.094c0.594 0.25 1.188 0.468 1.812 0.75C654 116.25 697.344 145.5 734.594 182.718c37.218 37.218 66.468 80.594 86.876 128.844 0.75 1.782 1.468 3.562 2.188 5.344l-0.406-0.406a440.962 440.962 0 0 1 3.562 8.844c-7.312 4.188-13.312 8.968-17.25 12.468-7.75 6.876-21.062 20.438-22.844 34.312a8.1 8.1 0 0 1-0.094 0.594 19.228 19.228 0 0 1-2.532 0.218c-24.906-13.282-49.25-29.562-71.656-49.5l-2.032-1.126 0.094-0.376c-1.968-1.25-4.25-1.876-6.594-1.938a12.68 12.68 0 0 0-8.218 3.312c-101.718 90.626-242.968 105.312-298.938 107.438-7.062 0.062-12.626 5.626-12.626 12.468l-0.124 3.224c1.188 33.312 4.968 65.626 10.876 96.906-3.844 0-7.688 0-11.562-0.032-47.438-0.562-75.688-28.656-77.5-77.126-1.626-43.81 9.218-78.186 32.312-102.186 26.844-27.876 63.156-34.126 73.75-34.126h0.438l4.126 0.75c60.218 10.75 78.75 16.25 83.688 19 15 8.25 31.062 12.468 47.688 12.468 27.626 0 55.688-12.438 71.468-31.688 9.094-11.094 12.906-23.406 10.626-34.688-3.188-16-19.594-25.062-35.188-31.844-13.282-5.75-30.844-11.626-52.282-17.5-38.126-10.438-82-18.938-106.688-20.75a68.972 68.972 0 0 0-3.626-0.094c-7.032 0-14.438 1.312-22.25 2.718-6.656 1.188-13.532 2.438-18.782 2.5 0.938-2.376 2.626-5.562 5.218-8.968 32.376-42.688 81.532-62.156 133.594-82.782 19.782-7.876 40.282-16 59.812-25.5 6.814-3.308 10.532-8.62 14.22-18.402zM120.376 693.406c-1.376 1.062-3.812 2.906-6.75 5.094a311.838 311.838 0 0 1-8.468-12.844v0.062a398.454 398.454 0 0 1-30.656-58.626c-18.562-43.844-29.062-90.094-31.376-137.782 2.876 4.312 5.562 8.376 8.032 12.062 5.718 8.626 10.218 15.438 13.406 19.876 6.562 9.126 13.376 18.126 19.938 26.782 8.562 11.282 16.688 21.968 24.094 32.75 25.594 37.188 35.938 67.594 29.968 87.906-2.376 8.096-8.502 16.408-18.188 24.72zM448 874.656c-54.75 0-107.844-10.718-157.782-31.844-48.282-20.406-91.594-49.626-128.844-86.876a396.734 396.734 0 0 1-21.812-23.594c4.188-3.094 7.282-5.468 8.126-6.188 14.376-12.218 26.438-27.126 31.812-45.438 12.562-42.718-12.126-89.782-35.75-124.126-14.032-20.376-30.094-40.094-44.5-60.218-8.282-11.5-31.312-48.188-53.5-77.718A401.12 401.12 0 0 1 74.5 311.56c20.406-48.25 49.626-91.626 86.876-128.844s80.562-66.468 128.844-86.876C340.156 74.718 393.25 64 448 64c38.626 0 76.406 5.376 112.876 15.938-14.968 6.812-30.468 12.938-46.688 19.376-55.22 21.874-112.312 44.498-151.876 96.686-17.844 23.5-19.75 48.218-4.968 64.5 7.782 8.562 19.032 12.938 33.376 12.938 9.094 0 18.468-1.688 26.718-3.188 5.626-1 11.438-2.062 14.688-2.062h0.562c19.656 1.438 56.5 8.406 89.532 16.968 33.218 8.594 52.344 16 61.782 20.718-6.468 6.062-19.844 13.562-36.188 13.562-9.344 0-18.438-2.438-27.062-7.188-14.126-7.812-48.906-15.062-96.812-23.626l-4.626-0.844c-2.156-0.406-4.594-0.594-7.438-0.594-20.406 0-68.5 9.876-104.5 47.25-31.438 32.626-46.312 77.5-44.188 133.376 2.656 70.968 49.626 117.344 119.656 118.126 4.032 0.064 8.094 0.064 12.156 0.064h2.718c2.312 0 4.532 0 6.718 0.032 27.876 107.312 80.938 200.75 143.25 276.282-32.342 8.186-65.686 12.342-99.686 12.342z m256 78.438c-68.688-51.032-131.5-119.282-178.438-194.156-29.062-46.468-52.188-95.438-68.688-145.626-15.188-46.282-24.812-93.876-28.688-141.812 30.876-2.688 69.968-8.438 112.282-20.156 63.282-17.562 118.156-44.25 163.532-79.468 45.344 35.25 100.25 61.938 163.562 79.5 42.25 11.688 81.282 17.406 112.188 20.126C962.282 688.376 830.376 859.188 704 953.094z" fill="" p-id="7468"></path><path d="M704.188 490.688A21.3 21.3 0 0 0 682.876 512v298.656c0 11.782 9.532 21.344 21.312 21.344s21.344-9.562 21.344-21.344V512c0-11.782-9.564-21.312-21.344-21.312z" fill="" p-id="7469"></path></svg>